HIERARCHY
ROOT Hips
{
	OFFSET 0.000000 0.000000 0.000000
	CHANNELS 6 Xposition Yposition Zposition Zrotation Yrotation Xrotation 
	JOINT LowerBack
	{
		OFFSET 0.000000 0.000000 0.000000
		CHANNELS 3 Zrotation Yrotation Xrotation
		JOINT Spine
		{
			OFFSET 0.028270 2.035590 -0.193380
			CHANNELS 3 Zrotation Yrotation Xrotation
			JOINT Spine1
			{
				OFFSET 0.056720 2.048850 -0.042750
				CHANNELS 3 Zrotation Yrotation Xrotation
				JOINT Neck
				{
					OFFSET 0.000000 0.000000 0.000000
					CHANNELS 3 Zrotation Yrotation Xrotation
					JOINT Neck1
					{
						OFFSET -0.054170 1.746240 0.172020
						CHANNELS 3 Zrotation Yrotation Xrotation
						JOINT Head
						{
							OFFSET 0.104070 1.761360 -0.123970
							CHANNELS 3 Zrotation Yrotation Xrotation
							End Site
							{
								OFFSET 0.000000 0.000000 0.000000
							}
						}
					}
				}
				JOINT LeftShoulder
				{
					OFFSET 0.000000 0.000000 0.000000
					CHANNELS 3 Zrotation Yrotation Xrotation
					JOINT LeftArm
					{
						OFFSET 3.362410 1.200890 -0.311210
						CHANNELS 3 Zrotation Yrotation Xrotation
						JOINT LeftForeArm
						{
							OFFSET 4.983000 -0.000000 -0.000000
							CHANNELS 3 Zrotation Yrotation Xrotation
							JOINT LeftHand
							{
								OFFSET 3.483560 -0.000000 -0.000000
								CHANNELS 3 Zrotation Yrotation Xrotation
								JOINT LeftFingerBase
								{
									OFFSET 0.000000 0.000000 0.000000
									CHANNELS 3 Zrotation Yrotation Xrotation
									JOINT LeftHandIndex1
									{
										OFFSET 0.715260 -0.000000 -0.000000
										CHANNELS 3 Zrotation Yrotation Xrotation
										End Site
										{
											OFFSET 0.000000 0.000000 0.000000
										}
									}
								}
								JOINT LThumb
								{
									OFFSET 0.000000 0.000000 0.000000
									CHANNELS 3 Zrotation Yrotation Xrotation
									End Site
									{
										OFFSET 0.000000 0.000000 0.000000
									}
								}
							}
						}
					}
				}
				JOINT RightShoulder
				{
					OFFSET 0.000000 0.000000 0.000000
					CHANNELS 3 Zrotation Yrotation Xrotation
					JOINT RightArm
					{
						OFFSET -3.136600 1.374050 -0.404650
						CHANNELS 3 Zrotation Yrotation Xrotation
						JOINT RightForeArm
						{
							OFFSET -5.241900 -0.000000 -0.000000
							CHANNELS 3 Zrotation Yrotation Xrotation
							JOINT RightHand
							{
								OFFSET -3.444170 -0.000000 -0.000000
								CHANNELS 3 Zrotation Yrotation Xrotation
								JOINT RightFingerBase
								{
									OFFSET 0.000000 0.000000 0.000000
									CHANNELS 3 Zrotation Yrotation Xrotation
									JOINT RightHandIndex1
									{
										OFFSET -0.622530 -0.000000 -0.000000
										CHANNELS 3 Zrotation Yrotation Xrotation
										End Site
										{
											OFFSET 0.000000 0.000000 0.000000
										}
									}
								}
								JOINT RThumb
								{
									OFFSET 0.000000 0.000000 0.000000
									CHANNELS 3 Zrotation Yrotation Xrotation
									End Site
									{
										OFFSET 0.000000 0.000000 0.000000
									}
								}
							}
						}
					}
				}
			}
		}
	}
}
}
MOTION
Frames: 12
Frame Time: 0.008333
4.248621 16.940220 2.589296 -174.303137 -87.254029 171.760071 -1.119251 -3.011104 -1.510749 -0.879579 -3.021203 -2.499837 -6.208269 -2.969107 2.315482 9.554682 -16.426596 -7.978195 -2.793368 -0.208682 -0.080481 0.000000 0.000000 0.000000 2.329055 8.566009 1.494934 -38.776901 -20.627684 6.128490 -2.798311 -31.580898 -0.012666 4.872653 1.370059 0.056032 -0.178682 0.123089 0.000000 0.000000 0.000000 0.000000 0.000000 0.000000 0.000000 15.466104 -14.499309 -0.414804 65.688887 -8.182814 -4.020253 3.609843 24.546331 0.010226 1.696901 4.922446 0.069767 0.095957 -0.036039 -0.000000 0.000000 0.000000 0.000000 0.000000 0.000000 0.000000 
4.084092 16.922346 2.584832 -177.713397 -87.445542 175.158166 -1.047990 -3.155725 -1.556438 -0.852734 -3.171787 -2.494049 -6.163738 -3.119139 2.348203 9.548805 -16.668645 -8.022737 -2.776125 -0.206885 -0.089812 0.000000 0.000000 0.000000 2.598950 8.434601 1.489340 -37.860137 -20.932376 5.800505 -2.674625 -32.580632 -0.013122 4.843832 1.316936 0.052939 -0.176301 0.131977 0.000000 0.000000 0.000000 0.000000 0.000000 0.000000 0.000000 15.485545 -14.853972 -0.406828 65.997148 -8.992784 -5.669519 3.684307 23.478569 0.010634 1.365030 5.022805 0.056362 0.101113 -0.036297 -0.000000 0.000000 0.000000 0.000000 0.000000 0.000000 0.000000 
3.918923 16.902634 2.580465 178.710255 -87.604784 178.726075 -0.956382 -3.296982 -1.603401 -0.821573 -3.320280 -2.490126 -6.113013 -3.267471 2.378530 9.532130 -16.891435 -8.069312 -2.755786 -0.204819 -0.099661 0.000000 0.000000 0.000000 2.864590 8.328732 1.479164 -37.005812 -21.184155 5.389640 -2.553229 -33.554839 -0.013585 4.795424 1.278733 0.050442 -0.173409 0.141084 0.000000 0.000000 0.000000 0.000000 0.000000 0.000000 0.000000 15.477310 -15.184504 -0.394219 66.301388 -9.786288 -7.352920 3.758921 22.414040 0.010966 1.074210 5.075063 0.043655 0.106013 -0.036558 -0.000000 0.000000 0.000000 0.000000 0.000000 0.000000 0.000000 
3.753093 16.881071 2.576091 175.137150 -87.734583 -177.699370 -0.842582 -3.436496 -1.655900 -0.784996 -3.468453 -2.487370 -6.055422 -3.415803 2.412834 9.508295 -17.124008 -8.126723 -2.730448 -0.202214 -0.112332 0.000000 0.000000 0.000000 3.113135 8.265858 1.464113 -36.197254 -21.406293 4.926887 -2.433968 -34.507080 -0.014041 4.726807 1.258311 0.048440 -0.170028 0.150271 0.000000 0.000000 0.000000 0.000000 0.000000 0.000000 0.000000 15.446356 -15.521941 -0.378336 66.586953 -10.527298 -8.988489 3.831531 21.348157 0.011200 0.804752 5.075617 0.031445 0.110765 -0.036723 -0.000000 0.000000 0.000000 0.000000 0.000000 0.000000 0.000000 
3.586695 16.857679 2.571871 171.863528 -87.830804 -174.423287 -0.700045 -3.571255 -1.708459 -0.742804 -3.613828 -2.489364 -5.997316 -3.561953 2.433497 9.474654 -17.284495 -8.172279 -2.707828 -0.199977 -0.121820 0.000000 0.000000 0.000000 3.366272 8.195768 1.448407 -35.457358 -21.522685 4.391663 -2.319294 -35.466546 -0.014418 4.627163 1.250479 0.046736 -0.166074 0.159447 0.000000 0.000000 0.000000 0.000000 0.000000 0.000000 0.000000 15.397721 -15.778080 -0.357347 66.881871 -11.323466 -10.748315 3.903972 20.342154 0.011304 0.608961 5.014902 0.022233 0.114972 -0.036955 -0.000000 0.000000 0.000000 0.000000 0.000000 0.000000 0.000000 
3.419411 16.832552 2.567366 168.729459 -87.910274 -171.272459 -0.541852 -3.707544 -1.766690 -0.695453 -3.761724 -2.491280 -5.933098 -3.710909 2.463131 9.439369 -17.477027 -8.234587 -2.679624 -0.197064 -0.135704 0.000000 0.000000 0.000000 3.589260 8.180050 1.429222 -34.738991 -21.627238 3.846712 -2.207363 -36.413777 -0.014731 4.506079 1.258716 0.045430 -0.161660 0.168491 0.000000 0.000000 0.000000 0.000000 0.000000 0.000000 0.000000 15.336601 -16.066358 -0.335958 67.143946 -12.044092 -12.367110 3.971116 19.344408 0.011302 0.408414 4.913865 0.012920 0.119114 -0.037009 -0.000000 0.000000 0.000000 0.000000 0.000000 0.000000 0.000000 
3.251369 16.805798 2.562510 165.680683 -87.982082 -168.200902 -0.371963 -3.846176 -1.827073 -0.644848 -3.912751 -2.495773 -5.867650 -3.863406 2.488413 9.401722 -17.644586 -8.295823 -2.652152 -0.194211 -0.149250 0.000000 0.000000 0.000000 3.797551 8.172799 1.410031 -34.052085 -21.658794 3.282973 -2.099570 -37.373714 -0.014932 4.358802 1.278631 0.044422 -0.156742 0.177313 0.000000 0.000000 0.000000 0.000000 0.000000 0.000000 0.000000 15.270727 -16.327039 -0.313810 67.395536 -12.771785 -13.965815 4.034031 18.404943 0.011185 0.239710 4.772094 0.005305 0.122891 -0.036997 -0.000000 0.000000 0.000000 0.000000 0.000000 0.000000 0.000000 
3.082478 16.777596 2.557013 162.419314 -88.060819 -164.909072 -0.200358 -3.991577 -1.887346 -0.592304 -4.070569 -2.499206 -5.798767 -4.022849 2.521123 9.367403 -17.840123 -8.369928 -2.621544 -0.190911 -0.166230 0.000000 0.000000 0.000000 3.972000 8.209038 1.389914 -33.367670 -21.681749 2.735364 -1.995510 -38.323636 -0.015019 4.192044 1.306421 0.043512 -0.151403 0.185909 -0.000000 0.000000 0.000000 0.000000 0.000000 0.000000 0.000000 15.206197 -16.618792 -0.294629 67.615523 -13.443562 -15.399948 4.090281 17.498434 0.010997 0.060376 4.616113 -0.002311 0.126533 -0.036794 -0.000000 0.000000 0.000000 0.000000 0.000000 0.000000 0.000000 
2.912812 16.748237 2.550978 158.964905 -88.148071 -161.427481 -0.022622 -4.142111 -1.942605 -0.538379 -4.233946 -2.505186 -5.732195 -4.188163 2.543848 9.331847 -17.987743 -8.433442 -2.595860 -0.188129 -0.180381 0.000000 0.000000 0.000000 4.136464 8.226509 1.372317 -32.714821 -21.609466 2.174421 -1.897450 -39.292528 -0.014926 3.996790 1.334726 0.042201 -0.145559 0.194222 0.000000 0.000000 0.000000 0.000000 0.000000 0.000000 0.000000 15.147117 -16.861262 -0.276874 67.837329 -14.160171 -16.842408 4.142227 16.677802 0.010756 -0.081334 4.449994 -0.007926 0.129696 -0.036627 -0.000000 0.000000 0.000000 0.000000 0.000000 0.000000 0.000000 
2.742311 16.718048 2.543978 154.723807 -88.258710 -157.156949 0.148555 -4.301986 -1.993878 -0.485129 -4.406123 -2.510090 -5.665209 -4.362291 2.570625 9.302172 -18.152713 -8.502717 -2.570300 -0.185253 -0.196097 0.000000 0.000000 0.000000 4.271172 8.262028 1.355228 -32.062069 -21.517580 1.637636 -1.804247 -40.249637 -0.014683 3.785003 1.361152 0.040689 -0.139346 0.202257 -0.000000 0.000000 0.000000 0.000000 0.000000 0.000000 0.000000 15.100309 -17.126157 -0.264035 68.038620 -14.845779 -18.134982 4.187870 15.906491 0.010517 -0.229463 4.300389 -0.013341 0.132644 -0.036343 -0.000000 0.000000 0.000000 0.000000 0.000000 0.000000 0.000000 
2.571036 16.687362 2.536003 149.384321 -88.390565 -151.789388 0.314833 -4.469487 -2.039445 -0.432649 -4.585513 -2.514846 -5.600030 -4.543698 2.596429 9.277382 -18.313409 -8.569967 -2.547646 -0.182614 -0.211312 0.000000 0.000000 0.000000 4.385370 8.292828 1.339306 -31.422521 -21.384582 1.115629 -1.716878 -41.196417 -0.014275 3.556956 1.379893 0.038676 -0.132791 0.210007 0.000000 0.000000 0.000000 0.000000 0.000000 0.000000 0.000000 15.068500 -17.390436 -0.255706 68.232887 -15.529437 -19.331633 4.228361 15.195993 0.010312 -0.369610 4.178198 -0.018255 0.135277 -0.036047 -0.000000 0.000000 0.000000 0.000000 0.000000 0.000000 0.000000 
2.399117 16.656536 2.527006 142.426622 -88.537587 -144.805344 0.476301 -4.643247 -2.078390 -0.380189 -4.770716 -2.518172 -5.536188 -4.731046 2.624864 9.258958 -18.484164 -8.638590 -2.526774 -0.180070 -0.226983 0.000000 0.000000 0.000000 4.475872 8.329339 1.323868 -30.795709 -21.238774 0.613520 -1.635672 -42.113628 -0.013711 3.317849 1.386685 0.036063 -0.125991 0.217509 -0.000000 0.000000 0.000000 0.000000 0.000000 0.000000 0.000000 15.052822 -17.668966 -0.252606 68.419237 -16.192421 -20.399212 4.263664 14.533395 0.010177 -0.512610 4.096230 -0.023068 0.137665 -0.035727 -0.000000 0.000000 0.000000 0.000000 0.000000 0.000000 0.000000 
